Presenting the definitive version of End of Evangelion. Included in this .mkv is the 5.1 AC3 English audio track from the ADV DVD release, the 5.1 DTS Japanese audio track and the 2.0 English commentary track from the ADV DVD release. English and Kanji translation subtitles are also included. For more info, see the MediaInfo below:



Video 
ID : 3 
Format : AVC 
Format/Info : Advanced Video Codec 
Format profile : Main@L4.0 
Format settings, CABAC : Yes 
Format settings, ReFrames : 4 frames 
Format settings, GOP : M=1, N=25 
Muxing mode : Header stripping 
Codec ID : V_MPEG4/ISO/AVC 
Duration : 1h 26mn 
Bit rate : 2 241 Kbps 
Width : 848 pixels 
Height : 480 pixels 
Display aspect ratio : 16:9 
Frame rate : 23.976 fps 
Color space : YUV 
Chroma subsampling : 4:2:0 
Bit depth : 8 bits 
Scan type : Progressive 
Bits/(Pixel*Frame) : 0.230 
Stream size : 1.36 GiB (51%) 
Writing library : eavc 1.0.2.2 

Audio #1 
ID : 4 
Format : DTS 
Format/Info : Digital Theater Systems 
Muxing mode : Header stripping 
Codec ID : A_DTS 
Duration : 1h 26mn 
Bit rate mode : Constant 
Bit rate : 1 510 Kbps 
Channel(s) : 6 channels 
Channel positions : Front: L C R, Side: L R, LFE 
Sampling rate : 48.0 KHz 
Bit depth : 16 bits 
Compression mode : Lossy 
Stream size : 938 MiB (34%) 
Language : Japanese 

Audio #2 
ID : 5 
Format : AC-3 
Format/Info : Audio Coding 3 
Mode extension : CM (complete main) 
Muxing mode : Header stripping 
Codec ID : A_AC3 
Duration : 1h 26mn 
Bit rate mode : Constant 
Bit rate : 384 Kbps 
Channel(s) : 6 channels 
Channel positions : Front: L C R, Side: L R, LFE 
Sampling rate : 48.0 KHz 
Bit depth : 16 bits 
Compression mode : Lossy 
Stream size : 238 MiB (9%) 
Language : English 

Audio #3 
ID : 6 
Format : AC-3 
Format/Info : Audio Coding 3 
Mode extension : CM (complete main) 
Muxing mode : Header stripping 
Codec ID : A_AC3 
Duration : 1h 26mn 
Bit rate mode : Constant 
Bit rate : 160 Kbps 
Channel(s) : 2 channels 
Channel positions : Front: L R 
Sampling rate : 48.0 KHz 
Bit depth : 16 bits 
Compression mode : Lossy 
Stream size : 99.4 MiB (4%) 
Language : English Commentary

Text #1 
ID : 1 
Format : UTF-8 
Codec ID : S_TEXT/UTF8 
Codec ID/Info : UTF-8 Plain Text 
Language : English 

Text #2 
ID : 2 
Format : UTF-8 
Codec ID : S_TEXT/UTF8 
Codec ID/Info : UTF-8 Plain Text 
Language : Kanji translation
